<svg viewBox="0 0 217 16" fill="none" xmlns="http://www.w3.org/2000/svg">
<path d="M2.11795 15.9926H0.00753317V15.2941C-0.0738045 13.6162 0.506093 11.9734 1.62268 10.7184L8.94447 2.09564H0.388221V0H11.5501V2.08824L3.49286 11.5685C2.14752 13.1393 2.12534 13.9931 2.12534 15.2941L2.11795 15.9926ZM11.5501 15.9926H2.79062V15.2054C2.77091 14.7685 2.80944 14.331 2.9052 13.9044H11.5501V15.9926ZM20.8641 7.61377C20.8641 7.14438 20.5462 6.83022 19.3118 6.83022H14.4922V4.76415H19.2526C21.8583 4.76415 22.9486 5.97644 22.9486 7.68399C22.9486 9.39155 21.9581 10.2416 19.0604 10.6408C16.366 11.0104 15.7155 11.38 15.7155 12.437C15.7155 13.3795 16.2773 13.9635 17.6005 13.9635H20.7236V11.2469C21.5477 11.0914 22.2886 10.6456 22.8119 9.9903V15.9852H17.704C14.6733 15.9852 13.6384 14.2998 13.6384 12.437C13.6384 10.1455 15.1648 9.20304 18.129 8.77431C20.3319 8.46754 20.8641 8.29014 20.8641 7.61377ZM35.7331 15.9926H33.667V10.3488C33.667 7.63225 32.9944 7.00023 29.8491 6.80064C26.4598 6.57519 25.8315 5.58836 25.8315 3.50012V0H27.8976V3.38924C27.8976 4.40194 28.075 4.64957 30.1854 4.78263C34.4099 5.00808 35.7294 6.57889 35.7294 10.0162L35.7331 15.9926ZM25.8315 6.15754C26.2787 6.71564 27.066 7.0335 27.8976 7.23308V15.9926H25.8315V6.15754ZM45.1246 7.61377C45.1246 7.14438 44.8105 6.83022 43.576 6.83022H38.7564V4.76415H43.5169C46.1226 4.76415 47.2129 5.97644 47.2129 7.68399C47.2129 9.39155 46.2224 10.2416 43.3247 10.6408C40.6303 11.0104 39.9798 11.38 39.9798 12.437C39.9798 13.3795 40.5416 13.9635 41.8648 13.9635H44.9879V11.2469C45.8119 11.0914 46.5529 10.6456 47.0761 9.9903V15.9852H41.9683C38.9338 15.9852 37.9027 14.2998 37.9027 12.437C37.9027 10.1455 39.4291 9.20304 42.3933 8.77431C44.5961 8.46754 45.132 8.29014 45.132 7.61377H45.1246ZM66.373 8.53777H59.8199C58.4968 8.53777 57.935 8.87411 57.935 10.0864V16H55.8246V10.2897C55.8246 7.70247 57.3732 6.51606 59.9789 6.51606H66.3803V0H68.4908V15.9889H66.3803L66.373 8.53777ZM57.9276 6.06514C57.0817 6.25248 56.3321 6.73952 55.8172 7.43636V0H57.9276V6.06514ZM77.7825 7.61377C77.7825 7.14438 77.4684 6.83022 76.2339 6.83022H71.4106V4.76415H76.1711C78.7767 4.76415 79.8671 5.97644 79.8671 7.68399C79.8671 9.39155 78.8765 10.2416 75.9789 10.6408C73.2845 11.0104 72.6525 11.38 72.6525 12.437C72.6525 13.3795 73.2143 13.9635 74.5374 13.9635H77.6606V11.2469C78.4846 11.0914 79.2255 10.6456 79.7488 9.9903V15.9852H74.6224C71.588 15.9852 70.5568 14.2998 70.5568 12.437C70.5568 10.1455 72.0833 9.20304 75.0475 8.77431C77.2503 8.46754 77.7825 8.29014 77.7825 7.61377ZM89.8426 3.5075V0H91.9567V3.38924C91.9567 5.63641 91.1694 6.62324 88.1387 6.78217C84.7014 6.95958 84.0288 7.74682 84.0288 10.3747C84.0288 12.8436 84.9491 13.9228 87.4845 13.9228H89.8426V7.25526C90.7185 7.05567 91.4393 6.76369 91.9567 6.06514V15.9926H87.5215C83.6813 15.9926 81.837 13.8822 81.837 10.3784C81.837 6.87456 83.297 5.01178 87.8357 4.78633C89.6097 4.69762 89.8463 4.51651 89.8463 3.5075H89.8426ZM94.8581 0H96.8761V2.69439H94.8581V0ZM94.8581 4.76045H96.8761V15.9889H94.8581V4.76045ZM107.391 3.50381V0H109.502V3.38924C109.502 5.63641 108.714 6.62324 105.684 6.78217C102.246 6.95958 101.574 7.74682 101.574 10.3747C101.574 12.8436 102.494 13.9228 105.033 13.9228H107.391V7.25526C108.267 7.05567 108.984 6.76369 109.502 6.06514V15.9926H105.066C101.226 15.9926 99.3857 13.8822 99.3857 10.3784C99.3857 6.87456 100.842 5.01178 105.381 4.78633C107.166 4.69762 107.391 4.51651 107.391 3.5075V3.50381ZM127.937 9.49873L125.176 1.73713L122.571 8.98868C121.585 9.11648 120.652 9.51283 119.876 10.1344L123.613 0H126.847L132.594 15.9889H130.266L128.673 11.5537H125.091C122.486 11.5537 121.499 11.8013 120.712 13.9339L119.972 15.9778H117.637L118.69 13.2391C119.902 10.0716 121.647 9.48764 125.158 9.48764L127.937 9.49873ZM138.674 6.82652C137.214 6.82652 136.586 7.27373 136.586 8.60059V15.9926H134.52V8.62647C134.52 5.95426 136.135 4.76415 138.855 4.76415H141.01V6.83022L138.674 6.82652ZM150.501 13.9228V15.9889H147.715C143.874 15.9889 142.171 13.8785 142.171 10.3747C142.171 6.87087 143.856 4.76045 147.715 4.76045H150.501V6.82652H147.737C145.201 6.82652 144.37 7.93532 144.37 10.3747C144.37 12.814 145.201 13.9228 147.737 13.9228H150.501ZM163.323 15.9889H161.257V10.3488C161.257 7.63225 160.584 7.00023 157.439 6.80064C154.05 6.57519 153.421 5.58836 153.421 3.50012V0H155.487V3.38924C155.487 4.40194 155.665 4.64957 157.775 4.78263C162 5.00808 163.319 6.57889 163.319 10.0162L163.323 15.9889ZM153.421 6.15384C153.868 6.71194 154.656 7.0298 155.487 7.22938V15.9889H153.421V6.15384ZM166.224 0H168.246V2.69439H166.224V0ZM166.224 4.76045H168.246V15.9889H166.224V4.76045ZM176.203 4.76045V6.82652H175.035C172.633 6.82652 171.221 5.76946 171.221 3.41141V1.63733H173.287V3.41141C173.287 4.46847 173.779 4.76045 174.925 4.76045H176.203ZM171.221 15.9889V5.95426C171.719 6.6438 172.455 7.1234 173.287 7.29961V15.9926L171.221 15.9889ZM183.348 13.9672H186.338V15.9889H182.967C179.777 15.9889 178.184 14.5105 177.793 12.6182C177.345 10.4856 178.133 9.41002 180.04 9.41002H185.451C185.429 7.52136 184.734 6.68977 182.557 6.68977C180.805 6.68977 179.97 7.41049 179.681 8.75583C178.624 8.80388 177.77 9.29545 177.527 9.92377C177.748 6.75999 179.412 4.69393 182.557 4.69393C186.282 4.69393 187.495 6.87087 187.45 10.0827V11.295H180.062C179.748 11.295 179.659 11.4539 179.692 11.7681C179.792 13.276 180.871 13.9709 183.34 13.9709L183.348 13.9672ZM197.836 13.9228V15.9889H195.053C191.213 15.9889 189.527 13.8785 189.527 10.3747C189.527 6.87087 191.213 4.76045 195.053 4.76045H197.836V6.82652H195.075C192.536 6.82652 191.704 7.93532 191.704 10.3747C191.704 12.814 192.536 13.9228 195.075 13.9228H197.836ZM205.764 4.76045V6.82652H204.596C202.194 6.82652 200.778 5.76946 200.778 3.41141V1.63733H202.844V3.41141C202.844 4.46847 203.339 4.76045 204.485 4.76045H205.764ZM200.778 15.9889V5.95426C201.277 6.64302 202.013 7.1224 202.844 7.29961V15.9926L200.778 15.9889ZM212.236 11.3393C211.315 11.2566 210.405 11.0833 209.519 10.8219C208.895 10.639 208.349 10.2519 207.971 9.72254C207.592 9.1932 207.402 8.5522 207.431 7.90206C207.431 6.26473 208.643 4.76045 211.63 4.76045H215.111V6.82652H211.238C209.889 6.82652 209.508 7.34396 209.508 7.99446C209.508 8.64495 210.114 9.00347 211.304 9.16239C212.225 9.24509 213.135 9.41841 214.021 9.67983C214.647 9.86138 215.195 10.2469 215.577 10.7752C215.96 11.3035 216.155 11.9443 216.131 12.596C216.131 14.3701 215.023 15.9889 211.774 15.9889H207.801V13.9228H212.136C213.481 13.9228 214.043 13.3167 214.043 12.596C214.043 11.8753 213.426 11.502 212.247 11.343L212.236 11.3393Z" fill="currentColor"/>
</svg>
