<svg width="24" height="24" viewBox="0 0 24 24" fill="none" xmlns="http://www.w3.org/2000/svg">
<path d="M18.0005 10.5V19.125C18.0005 19.3712 17.952 19.615 17.8578 19.8425C17.7635 20.07 17.6254 20.2767 17.4513 20.4508C17.2772 20.6249 17.0705 20.763 16.843 20.8573C16.6155 20.9515 16.3717 21 16.1255 21H4.87549C4.37821 21 3.90129 20.8025 3.54966 20.4508C3.19803 20.0992 3.00049 19.6223 3.00049 19.125V7.875C3.00049 7.37772 3.19803 6.90081 3.54966 6.54917C3.90129 6.19754 4.37821 6 4.87549 6H12.7261" stroke="black" stroke-width="1.00189" stroke-linecap="round" stroke-linejoin="round"/>
<path d="M15.7505 3H21.0026V8.25214" stroke="black" stroke-width="1.00189" stroke-linecap="round" stroke-linejoin="round"/>
<path d="M10.4995 13.5014L20.626 3.375" stroke="black" stroke-width="1.00189" stroke-linecap="round" stroke-linejoin="round"/>
</svg>
