<svg width="24" height="24" viewBox="0 0 17 17" fill="none" xmlns="http://www.w3.org/2000/svg">
<path d="M14.004 1.31744H2.31736C1.67878 1.31744 1.12085 1.77692 1.12085 2.40799V14.1205C1.12085 14.7551 1.67878 15.3205 2.31736 15.3205H14.0005C14.6425 15.3205 15.1239 14.7513 15.1239 14.1205V2.40799C15.1276 1.77692 14.6425 1.31744 14.004 1.31744ZM5.46148 12.9897H3.45542V6.75238H5.46148V12.9897ZM4.52784 5.80405H4.51346C3.87145 5.80405 3.45573 5.32613 3.45573 4.72787C3.45573 4.11868 3.88239 3.65201 4.53878 3.65201C5.19517 3.65201 5.59682 4.11524 5.6112 4.72787C5.61089 5.32613 5.19517 5.80405 4.52784 5.80405ZM12.7931 12.9897H10.787V9.57924C10.787 8.76219 10.4951 8.20394 9.76929 8.20394C9.2148 8.20394 8.8866 8.57902 8.74063 8.94442C8.68593 9.0757 8.67124 9.25448 8.67124 9.43702V12.9897H6.66518V6.75238H8.67124V7.62038C8.96318 7.20466 9.41922 6.60641 10.4804 6.60641C11.7972 6.60641 12.7934 7.47441 12.7934 9.34575L12.7931 12.9897Z" fill="black"/>
</svg>
