<svg width="24" height="24" viewBox="0 0 24 24" fill="none" xmlns="http://www.w3.org/2000/svg">
<g id="Icon / Calendar / 24px">
<path id="Vector" d="M5.65078 20.7C5.2712 20.7 4.95131 20.5699 4.69111 20.3097C4.43089 20.0495 4.30078 19.7296 4.30078 19.35V6.5C4.30078 6.12042 4.43089 5.80052 4.69111 5.5403C4.95131 5.2801 5.2712 5.15 5.65078 5.15H7.85078V3.35C7.85078 3.25667 7.88088 3.175 7.94108 3.105C8.0013 3.035 8.0788 3 8.17358 3C8.27546 3 8.35964 3.035 8.42611 3.105C8.49256 3.175 8.52578 3.25667 8.52578 3.35V5.15H15.5758V3.30703C15.5758 3.20901 15.6034 3.13333 15.6586 3.08C15.7139 3.02667 15.783 3 15.8661 3C15.9563 3 16.0305 3.02854 16.0886 3.08562C16.1467 3.14271 16.1758 3.21417 16.1758 3.3V5.15H18.3508C18.7304 5.15 19.0503 5.2801 19.3105 5.5403C19.5707 5.80052 19.7008 6.12042 19.7008 6.5V19.35C19.7008 19.7296 19.5707 20.0495 19.3105 20.3097C19.0503 20.5699 18.7304 20.7 18.3508 20.7H5.65078ZM5.65078 20.15H18.3508C18.5508 20.15 18.7341 20.0667 18.9008 19.9C19.0674 19.7333 19.1508 19.55 19.1508 19.35V10.725H4.85078V19.35C4.85078 19.55 4.93411 19.7333 5.10078 19.9C5.26745 20.0667 5.45078 20.15 5.65078 20.15ZM4.85078 10.175H19.1508V6.5C19.1508 6.3 19.0674 6.11667 18.9008 5.95C18.7341 5.78333 18.5508 5.7 18.3508 5.7H5.65078C5.45078 5.7 5.26745 5.78333 5.10078 5.95C4.93411 6.11667 4.85078 6.3 4.85078 6.5V10.175ZM12.0008 14.2C11.8174 14.2 11.6549 14.1292 11.5133 13.9875C11.3716 13.8458 11.3008 13.6833 11.3008 13.5C11.3008 13.3167 11.3716 13.1542 11.5133 13.0125C11.6549 12.8708 11.8174 12.8 12.0008 12.8C12.1841 12.8 12.3466 12.8708 12.4883 13.0125C12.6299 13.1542 12.7008 13.3167 12.7008 13.5C12.7008 13.6833 12.6299 13.8458 12.4883 13.9875C12.3466 14.1292 12.1841 14.2 12.0008 14.2ZM8.00078 14.2C7.81745 14.2 7.65495 14.1292 7.51328 13.9875C7.37161 13.8458 7.30078 13.6833 7.30078 13.5C7.30078 13.3167 7.37161 13.1542 7.51328 13.0125C7.65495 12.8708 7.81745 12.8 8.00078 12.8C8.18411 12.8 8.34661 12.8708 8.48828 13.0125C8.62995 13.1542 8.70078 13.3167 8.70078 13.5C8.70078 13.6833 8.62995 13.8458 8.48828 13.9875C8.34661 14.1292 8.18411 14.2 8.00078 14.2ZM16.0008 14.2C15.8174 14.2 15.6549 14.1292 15.5133 13.9875C15.3716 13.8458 15.3008 13.6833 15.3008 13.5C15.3008 13.3167 15.3716 13.1542 15.5133 13.0125C15.6549 12.8708 15.8174 12.8 16.0008 12.8C16.1841 12.8 16.3466 12.8708 16.4883 13.0125C16.6299 13.1542 16.7008 13.3167 16.7008 13.5C16.7008 13.6833 16.6299 13.8458 16.4883 13.9875C16.3466 14.1292 16.1841 14.2 16.0008 14.2ZM12.0008 18C11.8174 18 11.6549 17.9292 11.5133 17.7875C11.3716 17.6458 11.3008 17.4833 11.3008 17.3C11.3008 17.1167 11.3716 16.9542 11.5133 16.8125C11.6549 16.6708 11.8174 16.6 12.0008 16.6C12.1841 16.6 12.3466 16.6708 12.4883 16.8125C12.6299 16.9542 12.7008 17.1167 12.7008 17.3C12.7008 17.4833 12.6299 17.6458 12.4883 17.7875C12.3466 17.9292 12.1841 18 12.0008 18ZM8.00078 18C7.81745 18 7.65495 17.9292 7.51328 17.7875C7.37161 17.6458 7.30078 17.4833 7.30078 17.3C7.30078 17.1167 7.37161 16.9542 7.51328 16.8125C7.65495 16.6708 7.81745 16.6 8.00078 16.6C8.18411 16.6 8.34661 16.6708 8.48828 16.8125C8.62995 16.9542 8.70078 17.1167 8.70078 17.3C8.70078 17.4833 8.62995 17.6458 8.48828 17.7875C8.34661 17.9292 8.18411 18 8.00078 18ZM16.0008 18C15.8174 18 15.6549 17.9292 15.5133 17.7875C15.3716 17.6458 15.3008 17.4833 15.3008 17.3C15.3008 17.1167 15.3716 16.9542 15.5133 16.8125C15.6549 16.6708 15.8174 16.6 16.0008 16.6C16.1841 16.6 16.3466 16.6708 16.4883 16.8125C16.6299 16.9542 16.7008 17.1167 16.7008 17.3C16.7008 17.4833 16.6299 17.6458 16.4883 17.7875C16.3466 17.9292 16.1841 18 16.0008 18Z" fill="#EAE6DC"/>
</g>
</svg>
