<svg xmlns="http://www.w3.org/2000/svg" width="24" height="24" viewBox="0 0 24 24" fill="none">
    <path d="M8.17345 19.8389C8.05782 19.7233 8 19.6076 8 19.492C8 19.3763 8.05782 19.2607 8.17345 19.1451L15.299 12.0195L8.17345 4.86731C8.05782 4.76948 8 4.65828 8 4.53373C8 4.40918 8.05782 4.28909 8.17345 4.17345C8.28912 4.05782 8.40477 4 8.5204 4C8.63604 4 8.75169 4.05782 8.86735 4.17345L15.8994 11.2322C16.0151 11.3479 16.1041 11.468 16.1663 11.5925C16.2286 11.7171 16.2597 11.8594 16.2597 12.0195C16.2597 12.1619 16.2286 12.2997 16.1663 12.4332C16.1041 12.5666 16.0151 12.6912 15.8994 12.8068L8.86735 19.8389C8.75169 19.9546 8.63604 20.008 8.5204 19.999C8.40477 19.9902 8.28912 19.9368 8.17345 19.8389Z" fill="#000" />
</svg>