<svg width="24" height="24" viewBox="0 0 24 24" fill="none" xmlns="http://www.w3.org/2000/svg">
<path d="M16.3753 3.24984C17.5347 3.25331 18.6455 3.71539 19.4653 4.53517C20.2851 5.35495 20.7472 6.46582 20.7506 7.62516V16.3748C20.7472 17.5342 20.2851 18.6451 19.4653 19.4648C18.6455 20.2846 17.5347 20.7467 16.3753 20.7502H7.62564C6.4663 20.7467 5.35544 20.2846 4.53566 19.4648C3.71587 18.6451 3.25379 17.5342 3.25033 16.3748V7.62516C3.25379 6.46582 3.71587 5.35495 4.53566 4.53517C5.35544 3.71539 6.4663 3.25331 7.62564 3.24984H16.3753ZM16.3753 1.5H7.62564C4.25674 1.5 1.50049 4.25625 1.50049 7.62516V16.3748C1.50049 19.7437 4.25674 22.5 7.62564 22.5H16.3753C19.7442 22.5 22.5005 19.7437 22.5005 16.3748V7.62516C22.5005 4.25625 19.7442 1.5 16.3753 1.5Z" fill="black"/>
<path d="M17.6912 7.63252C17.4309 7.63252 17.1764 7.55532 16.9599 7.41069C16.7435 7.26606 16.5748 7.06048 16.4751 6.81997C16.3755 6.57946 16.3494 6.3148 16.4002 6.05947C16.451 5.80414 16.5764 5.56961 16.7605 5.38552C16.9445 5.20144 17.1791 5.07608 17.4344 5.02529C17.6897 4.9745 17.9544 5.00057 18.1949 5.10019C18.4354 5.19982 18.641 5.36853 18.7856 5.58499C18.9303 5.80144 19.0075 6.05593 19.0075 6.31626C19.0078 6.48922 18.974 6.66055 18.908 6.82041C18.842 6.98027 18.7451 7.12552 18.6228 7.24782C18.5005 7.37012 18.3552 7.46707 18.1953 7.53308C18.0355 7.5991 17.8642 7.63289 17.6912 7.63252Z" fill="black"/>
<path d="M12.0002 8.49984C12.6925 8.49984 13.3692 8.70512 13.9448 9.08973C14.5204 9.47433 14.9691 10.021 15.234 10.6605C15.4989 11.3001 15.5682 12.0039 15.4331 12.6828C15.2981 13.3618 14.9647 13.9855 14.4752 14.475C13.9857 14.9645 13.3621 15.2978 12.6831 15.4329C12.0041 15.568 11.3004 15.4986 10.6608 15.2337C10.0212 14.9688 9.47458 14.5202 9.08997 13.9446C8.70537 13.369 8.50009 12.6923 8.50009 12C8.50108 11.072 8.87017 10.1823 9.52636 9.52611C10.1825 8.86992 11.0723 8.50084 12.0002 8.49984ZM12.0002 6.75C10.9619 6.75 9.94686 7.05791 9.0835 7.63478C8.22014 8.21166 7.54724 9.0316 7.14988 9.99091C6.75252 10.9502 6.64855 12.0058 6.85112 13.0242C7.0537 14.0426 7.55371 14.9781 8.28794 15.7123C9.02216 16.4465 9.95762 16.9466 10.976 17.1491C11.9944 17.3517 13.05 17.2477 14.0093 16.8504C14.9686 16.453 15.7886 15.7801 16.3655 14.9167C16.9423 14.0534 17.2502 13.0384 17.2502 12C17.2502 10.6076 16.6971 9.27226 15.7126 8.28769C14.728 7.30312 13.3926 6.75 12.0002 6.75Z" fill="black"/>
</svg>
