<svg width="24" height="24" viewBox="0 0 24 24" fill="none" xmlns="http://www.w3.org/2000/svg">
<path d="M23.2494 5.13282C22.4054 5.49955 21.5124 5.74116 20.5986 5.85001C21.5589 5.28769 22.2811 4.39434 22.6297 3.33751C21.7218 3.86841 20.7301 4.24092 19.6972 4.43907C19.2622 3.98323 18.7391 3.62059 18.1597 3.3732C17.5802 3.12581 16.9565 2.99884 16.3264 3.00001C13.7755 3.00001 11.7111 5.03438 11.7111 7.5422C11.7093 7.89102 11.7493 8.23881 11.8302 8.57813C10.001 8.49238 8.20979 8.02575 6.57126 7.2081C4.93272 6.39044 3.4829 5.23977 2.31455 3.8297C1.90466 4.52069 1.68789 5.30909 1.68689 6.11251C1.68689 7.68751 2.50861 9.0797 3.74939 9.89532C3.01426 9.87788 2.2942 9.68331 1.65033 9.32814V9.38438C1.65033 11.5875 3.24408 13.4203 5.35345 13.8375C4.95679 13.9433 4.54803 13.9968 4.13751 13.9969C3.84622 13.9974 3.55559 13.9691 3.26986 13.9125C3.85626 15.7172 5.56298 17.0297 7.5847 17.0672C5.94191 18.3333 3.92499 19.0175 1.85095 19.0125C1.4828 19.012 1.115 18.9901 0.74939 18.9469C2.85932 20.2942 5.31194 21.0068 7.81533 21C16.3166 21 20.961 14.0766 20.961 8.07188C20.961 7.87501 20.9558 7.67813 20.9464 7.48595C21.8479 6.84472 22.6277 6.04787 23.2494 5.13282Z" fill="black"/>
</svg>
