<svg width="24" height="24" viewBox="0 0 24 24" fill="none" xmlns="http://www.w3.org/2000/svg">
<g clip-path="url(#clip0_317_19709)">
<path d="M23.8426 6.97453C23.8426 4.86516 22.291 3.16828 20.3739 3.16828C17.777 3.04687 15.1285 3 12.422 3H11.5782C8.87823 3 6.2251 3.04687 3.62823 3.16875C1.71573 3.16875 0.164165 4.875 0.164165 6.98437C0.046977 8.65266 -0.00271056 10.3214 0.000101945 11.9902C-0.00458556 13.6589 0.0485395 15.3292 0.159477 17.0011C0.159477 19.1105 1.71104 20.8214 3.62354 20.8214C6.35167 20.948 9.15011 21.0042 11.9954 20.9995C14.8454 21.0089 17.636 20.9495 20.3673 20.8214C22.2845 20.8214 23.836 19.1105 23.836 17.0011C23.9485 15.3277 24.0001 13.6589 23.9954 11.9855C24.006 10.3167 23.9551 8.6464 23.8426 6.97453ZM9.70323 16.5886V7.37766L16.5001 11.9808L9.70323 16.5886Z" fill="black"/>
</g>
<defs>
<clipPath id="clip0_317_19709">
<rect width="24" height="24" fill="white"/>
</clipPath>
</defs>
</svg>
